<svg width="506" height="95" viewBox="0 0 506 95" fill="none" xmlns="http://www.w3.org/2000/svg">
<path d="M143.699 76.3582C140.209 76.3582 137.052 75.5882 134.228 74.0482C131.456 72.4569 129.249 70.1212 127.606 67.0412C126.015 63.9612 125.219 60.1112 125.219 55.4912C125.219 50.8712 126.041 47.0212 127.683 43.9412C129.377 40.8612 131.61 38.5512 134.382 37.0112C137.206 35.4712 140.311 34.7012 143.699 34.7012C147.703 34.7012 151.245 35.5739 154.325 37.3192C157.405 39.0646 159.844 41.5029 161.64 44.6342C163.437 47.7142 164.335 51.3332 164.335 55.4912C164.335 59.6492 163.437 63.2939 161.64 66.4252C159.844 69.5566 157.405 71.9949 154.325 73.7402C151.245 75.4856 147.703 76.3582 143.699 76.3582ZM122.062 75.8962V18.7622H129.454V45.9432L128.684 55.4142L129.146 64.8852V75.8962H122.062ZM143.083 69.8902C145.701 69.8902 148.037 69.2999 150.09 68.1192C152.195 66.9386 153.838 65.2702 155.018 63.1142C156.25 60.9069 156.866 58.3659 156.866 55.4912C156.866 52.5652 156.25 50.0499 155.018 47.9452C153.838 45.7892 152.195 44.1209 150.09 42.9402C148.037 41.7596 145.701 41.1692 143.083 41.1692C140.517 41.1692 138.181 41.7596 136.076 42.9402C134.023 44.1209 132.38 45.7892 131.148 47.9452C129.968 50.0499 129.377 52.5652 129.377 55.4912C129.377 58.3659 129.968 60.9069 131.148 63.1142C132.38 65.2702 134.023 66.9386 136.076 68.1192C138.181 69.2999 140.517 69.8902 143.083 69.8902ZM191.258 76.3582C187.151 76.3582 183.506 75.4599 180.324 73.6632C177.141 71.8666 174.626 69.4026 172.778 66.2712C170.93 63.0886 170.006 59.4952 170.006 55.4912C170.006 51.4359 170.93 47.8426 172.778 44.7112C174.626 41.5799 177.141 39.1416 180.324 37.3962C183.506 35.5996 187.151 34.7012 191.258 34.7012C195.313 34.7012 198.932 35.5996 202.115 37.3962C205.349 39.1416 207.864 41.5799 209.661 44.7112C211.509 47.7912 212.433 51.3846 212.433 55.4912C212.433 59.5466 211.509 63.1399 209.661 66.2712C207.864 69.4026 205.349 71.8666 202.115 73.6632C198.932 75.4599 195.313 76.3582 191.258 76.3582ZM191.258 69.8902C193.876 69.8902 196.211 69.2999 198.265 68.1192C200.369 66.9386 202.012 65.2702 203.193 63.1142C204.373 60.9069 204.964 58.3659 204.964 55.4912C204.964 52.5652 204.373 50.0499 203.193 47.9452C202.012 45.7892 200.369 44.1209 198.265 42.9402C196.211 41.7596 193.876 41.1692 191.258 41.1692C188.64 41.1692 186.304 41.7596 184.251 42.9402C182.197 44.1209 180.555 45.7892 179.323 47.9452C178.091 50.0499 177.475 52.5652 177.475 55.4912C177.475 58.3659 178.091 60.9069 179.323 63.1142C180.555 65.2702 182.197 66.9386 184.251 68.1192C186.304 69.2999 188.64 69.8902 191.258 69.8902ZM238.903 76.3582C234.745 76.3582 231.023 75.4599 227.738 73.6632C224.504 71.8666 221.963 69.4026 220.115 66.2712C218.267 63.1399 217.343 59.5466 217.343 55.4912C217.343 51.4359 218.267 47.8426 220.115 44.7112C221.963 41.5799 224.504 39.1416 227.738 37.3962C231.023 35.5996 234.745 34.7012 238.903 34.7012C242.599 34.7012 245.884 35.4456 248.759 36.9342C251.685 38.3716 253.943 40.5276 255.535 43.4022L249.914 47.0212C248.579 45.0192 246.936 43.5562 244.986 42.6322C243.086 41.6569 241.033 41.1692 238.826 41.1692C236.156 41.1692 233.769 41.7596 231.665 42.9402C229.56 44.1209 227.892 45.7892 226.66 47.9452C225.428 50.0499 224.812 52.5652 224.812 55.4912C224.812 58.4172 225.428 60.9582 226.66 63.1142C227.892 65.2702 229.56 66.9386 231.665 68.1192C233.769 69.2999 236.156 69.8902 238.826 69.8902C241.033 69.8902 243.086 69.4282 244.986 68.5042C246.936 67.5289 248.579 66.0402 249.914 64.0382L255.535 67.5802C253.943 70.4036 251.685 72.5852 248.759 74.1252C245.884 75.6139 242.599 76.3582 238.903 76.3582ZM288.898 75.8962V67.2722L288.513 65.6552V50.9482C288.513 47.8169 287.589 45.4042 285.741 43.7102C283.944 41.9649 281.224 41.0922 277.579 41.0922C275.166 41.0922 272.805 41.5029 270.495 42.3242C268.185 43.0942 266.234 44.1466 264.643 45.4812L261.563 39.9372C263.668 38.2432 266.183 36.9599 269.109 36.0872C272.086 35.1632 275.192 34.7012 278.426 34.7012C284.021 34.7012 288.333 36.0616 291.362 38.7822C294.391 41.5029 295.905 45.6609 295.905 51.2562V75.8962H288.898ZM275.5 76.3582C272.471 76.3582 269.802 75.8449 267.492 74.8182C265.233 73.7916 263.488 72.3799 262.256 70.5832C261.024 68.7352 260.408 66.6562 260.408 64.3462C260.408 62.1389 260.921 60.1369 261.948 58.3402C263.026 56.5436 264.746 55.1062 267.107 54.0282C269.52 52.9502 272.754 52.4112 276.809 52.4112H289.745V57.7242H277.117C273.421 57.7242 270.931 58.3402 269.648 59.5722C268.365 60.8042 267.723 62.2929 267.723 64.0382C267.723 66.0402 268.519 67.6572 270.11 68.8892C271.701 70.0699 273.909 70.6602 276.732 70.6602C279.504 70.6602 281.917 70.0442 283.97 68.8122C286.075 67.5802 287.589 65.7836 288.513 63.4222L289.976 68.5042C289.001 70.9169 287.281 72.8419 284.817 74.2792C282.353 75.6652 279.247 76.3582 275.5 76.3582ZM322.828 76.3582C319.44 76.3582 316.206 75.8962 313.126 74.9722C310.098 74.0482 307.711 72.9189 305.965 71.5842L309.045 65.7322C310.791 66.9129 312.947 67.9139 315.513 68.7352C318.08 69.5566 320.698 69.9672 323.367 69.9672C326.807 69.9672 329.271 69.4796 330.759 68.5042C332.299 67.5289 333.069 66.1686 333.069 64.4232C333.069 63.1399 332.607 62.1389 331.683 61.4202C330.759 60.7016 329.527 60.1626 327.987 59.8032C326.499 59.4439 324.83 59.1359 322.982 58.8792C321.134 58.5712 319.286 58.2119 317.438 57.8012C315.59 57.3392 313.896 56.7232 312.356 55.9532C310.816 55.1319 309.584 54.0282 308.66 52.6422C307.736 51.2049 307.274 49.3056 307.274 46.9442C307.274 44.4802 307.967 42.3242 309.353 40.4762C310.739 38.6282 312.69 37.2166 315.205 36.2412C317.772 35.2146 320.801 34.7012 324.291 34.7012C326.961 34.7012 329.656 35.0349 332.376 35.7022C335.148 36.3182 337.407 37.2166 339.152 38.3972L335.995 44.2492C334.147 43.0172 332.222 42.1702 330.22 41.7082C328.218 41.2462 326.216 41.0152 324.214 41.0152C320.98 41.0152 318.568 41.5542 316.976 42.6322C315.385 43.6589 314.589 44.9936 314.589 46.6362C314.589 48.0222 315.051 49.1002 315.975 49.8702C316.951 50.5889 318.183 51.1536 319.671 51.5642C321.211 51.9749 322.905 52.3342 324.753 52.6422C326.601 52.8989 328.449 53.2582 330.297 53.7202C332.145 54.1309 333.814 54.7212 335.302 55.4912C336.842 56.2612 338.074 57.3392 338.998 58.7252C339.974 60.1112 340.461 61.9592 340.461 64.2692C340.461 66.7332 339.743 68.8636 338.305 70.6602C336.868 72.4569 334.84 73.8686 332.222 74.8952C329.604 75.8706 326.473 76.3582 322.828 76.3582ZM363.714 76.3582C359.607 76.3582 356.424 75.2546 354.166 73.0472C351.907 70.8399 350.778 67.6829 350.778 63.5762V26.1542H358.17V63.2682C358.17 65.4756 358.709 67.1696 359.787 68.3502C360.916 69.5309 362.507 70.1212 364.561 70.1212C366.871 70.1212 368.796 69.4796 370.336 68.1962L372.646 73.5092C371.516 74.4846 370.156 75.2032 368.565 75.6652C367.025 76.1272 365.408 76.3582 363.714 76.3582ZM343.848 41.1692V35.0862H369.874V41.1692H343.848ZM404.605 75.8962V67.2722L404.22 65.6552V50.9482C404.22 47.8169 403.296 45.4042 401.448 43.7102C399.652 41.9649 396.931 41.0922 393.286 41.0922C390.874 41.0922 388.512 41.5029 386.202 42.3242C383.892 43.0942 381.942 44.1466 380.35 45.4812L377.27 39.9372C379.375 38.2432 381.89 36.9599 384.816 36.0872C387.794 35.1632 390.899 34.7012 394.133 34.7012C399.729 34.7012 404.041 36.0616 407.069 38.7822C410.098 41.5029 411.612 45.6609 411.612 51.2562V75.8962H404.605ZM391.207 76.3582C388.179 76.3582 385.509 75.8449 383.199 74.8182C380.941 73.7916 379.195 72.3799 377.963 70.5832C376.731 68.7352 376.115 66.6562 376.115 64.3462C376.115 62.1389 376.629 60.1369 377.655 58.3402C378.733 56.5436 380.453 55.1062 382.814 54.0282C385.227 52.9502 388.461 52.4112 392.516 52.4112H405.452V57.7242H392.824C389.128 57.7242 386.639 58.3402 385.355 59.5722C384.072 60.8042 383.43 62.2929 383.43 64.0382C383.43 66.0402 384.226 67.6572 385.817 68.8892C387.409 70.0699 389.616 70.6602 392.439 70.6602C395.211 70.6602 397.624 70.0442 399.677 68.8122C401.782 67.5802 403.296 65.7836 404.22 63.4222L405.683 68.5042C404.708 70.9169 402.988 72.8419 400.524 74.2792C398.06 75.6652 394.955 76.3582 391.207 76.3582ZM439.999 76.3582C435.841 76.3582 432.119 75.4599 428.834 73.6632C425.6 71.8666 423.059 69.4026 421.211 66.2712C419.363 63.1399 418.439 59.5466 418.439 55.4912C418.439 51.4359 419.363 47.8426 421.211 44.7112C423.059 41.5799 425.6 39.1416 428.834 37.3962C432.119 35.5996 435.841 34.7012 439.999 34.7012C443.695 34.7012 446.98 35.4456 449.855 36.9342C452.781 38.3716 455.04 40.5276 456.631 43.4022L451.01 47.0212C449.675 45.0192 448.033 43.5562 446.082 42.6322C444.183 41.6569 442.129 41.1692 439.922 41.1692C437.253 41.1692 434.866 41.7596 432.761 42.9402C430.656 44.1209 428.988 45.7892 427.756 47.9452C426.524 50.0499 425.908 52.5652 425.908 55.4912C425.908 58.4172 426.524 60.9582 427.756 63.1142C428.988 65.2702 430.656 66.9386 432.761 68.1192C434.866 69.2999 437.253 69.8902 439.922 69.8902C442.129 69.8902 444.183 69.4282 446.082 68.5042C448.033 67.5289 449.675 66.0402 451.01 64.0382L456.631 67.5802C455.04 70.4036 452.781 72.5852 449.855 74.1252C446.98 75.6139 443.695 76.3582 439.999 76.3582ZM469.897 66.0402L470.051 56.5692L493.536 35.0862H502.468L484.45 52.7962L480.446 56.1842L469.897 66.0402ZM463.891 75.8962V18.7622H471.283V75.8962H463.891ZM495.076 75.8962L479.06 56.0302L483.834 50.1012L504.162 75.8962H495.076Z" fill="#404082"/>
<path fill-rule="evenodd" clip-rule="evenodd" d="M26.5017 35.2475C21.038 38.5104 19.8401 41.6825 19.8401 43.3695C19.8401 45.0565 21.038 48.2287 26.5017 51.4916C31.7693 54.6374 39.6619 56.8906 48.8888 56.8906V75.8906C36.8259 75.8906 25.4442 72.9903 16.7599 67.8041C8.27174 62.735 0.840149 54.3967 0.840149 43.3695C0.840149 32.3424 8.27174 24.004 16.7599 18.9349C25.4442 13.7488 36.8259 10.8485 48.8888 10.8485V29.8485C39.6619 29.8485 31.7693 32.1017 26.5017 35.2475Z" fill="#11DEFF"/>
<path fill-rule="evenodd" clip-rule="evenodd" d="M62.0588 44.3009C56.7912 41.1551 48.8986 38.9019 39.6717 38.9019V19.9019C51.7346 19.9019 63.1163 22.8022 71.8006 27.9884C80.2888 33.0574 87.7204 41.3958 87.7204 52.4229C87.7204 63.4501 80.2888 71.7884 71.8006 76.8575C63.1163 82.0437 51.7346 84.944 39.6717 84.944V65.944C48.8986 65.944 56.7912 63.6908 62.0588 60.545C67.5225 57.2821 68.7204 54.1099 68.7204 52.4229C68.7204 50.7359 67.5225 47.5638 62.0588 44.3009Z" fill="#4383FF"/>
<path fill-rule="evenodd" clip-rule="evenodd" d="M26.5017 35.2475C21.038 38.5104 19.8401 41.6825 19.8401 43.3695C19.8401 45.0565 21.038 48.2287 26.5017 51.4916C31.7693 54.6374 39.6619 56.8906 48.8888 56.8906V75.8906C36.8259 75.8906 25.4442 72.9903 16.7599 67.8041C8.27174 62.735 0.840149 54.3967 0.840149 43.3695C0.840149 32.3424 8.27174 24.004 16.7599 18.935C25.4442 13.7488 32.1618 15.5752 35.7249 12.6702V31.6702C26.498 31.6702 31.7693 32.1017 26.5017 35.2475Z" fill="#11DEFF"/>
</svg>
